<svg width="16" height="16" viewBox="0 0 16 16" fill="none" xmlns="http://www.w3.org/2000/svg">
<path fill-rule="evenodd" clip-rule="evenodd" d="M1 3C1 1.89543 1.89543 1 3 1H10C11.1046 1 12 1.89543 12 3V10C12 11.1046 11.1046 12 10 12H3C1.89543 12 1 11.1046 1 10V3ZM8.17795 6.38937C8.47124 6.58895 8.46918 7.02199 8.17401 7.21877L5.44402 9.03876C5.11174 9.26028 4.66667 9.02209 4.66667 8.62274V4.94503C4.66667 4.54352 5.11602 4.30578 5.44796 4.53166L8.17795 6.38937ZM14.8 3.00001C14.8 2.55818 14.4418 2.2 14 2.2C13.5582 2.2 13.2 2.55817 13.2 2.99999L13.1999 12C13.1999 12.6627 12.6627 13.2 11.9999 13.2H5C4.55817 13.2 4.2 13.5582 4.2 14C4.2 14.4418 4.55817 14.8 5 14.8H11.9999C13.5463 14.8 14.7999 13.5464 14.7999 12L14.8 3.00001Z" fill="#6E8894"/>
</svg>
