<svg width="20" height="21" viewBox="0 0 20 21" fill="none" xmlns="http://www.w3.org/2000/svg">
<path d="M14.3333 4.51852C14.3333 6.46174 11.3486 8.03704 7.66667 8.03704C3.98477 8.03704 1 6.46174 1 4.51852M14.3333 4.51852C14.3333 2.57529 11.3486 1 7.66667 1C3.98477 1 1 2.57529 1 4.51852M14.3333 4.51852V10.1481M1 4.51852V10.1481M14.3333 10.1481C11.756 10.1481 9.66667 12.3536 9.66667 15.0741C9.66667 17.7946 11.756 20 14.3333 20C16.9107 20 19 17.7946 19 15.0741C19 12.3536 16.9107 10.1481 14.3333 10.1481ZM14.3333 12.963V17.1852M12.3333 15.0741H16.3333M1 10.1481C1 12.1185 4 13.6667 7.66667 13.6667C8.46667 13.6667 9.2 13.5963 9.93333 13.4556M1 10.1481V15.7778C1 17.7481 4 19.2963 7.66667 19.2963C9 19.2963 10.2 19.0852 11.2 18.7333" stroke="#6E8894" stroke-width="2" stroke-miterlimit="10" stroke-linecap="round" stroke-linejoin="round"/>
</svg>
