<svg width="26" height="27" viewBox="0 0 26 27" fill="none" xmlns="http://www.w3.org/2000/svg">
<path fill-rule="evenodd" clip-rule="evenodd" d="M5.31818 13.2C5.31818 12.3426 5.45823 11.5206 5.70818 10.7496L1.33309 7.35239C0.480409 9.11279 0 11.0964 0 13.2C0 15.3018 0.479818 17.2842 1.33132 19.0434L5.70405 15.6396C5.45645 14.8722 5.31818 14.0532 5.31818 13.2Z" fill="#FBBC05"/>
<path fill-rule="evenodd" clip-rule="evenodd" d="M13 5.4C14.8319 5.4 16.4864 6.06 17.7864 7.14L21.5682 3.3C19.2637 1.26 16.3091 0 13 0C7.86268 0 3.4474 2.9874 1.33313 7.3524L5.70822 10.7496C6.71631 7.638 9.5899 5.4 13 5.4Z" fill="#EA4335"/>
<path fill-rule="evenodd" clip-rule="evenodd" d="M13 21C9.5899 21 6.71631 18.762 5.70822 15.6504L1.33313 19.047C3.4474 23.4126 7.86268 26.4 13 26.4C16.1709 26.4 19.1981 25.2552 21.4701 23.1102L17.3172 19.8456C16.1454 20.5962 14.6699 21 13 21Z" fill="#34A853"/>
<path fill-rule="evenodd" clip-rule="evenodd" d="M25.4091 13.2C25.4091 12.42 25.2909 11.58 25.1136 10.8H13V15.9H19.9727C19.6241 17.6388 18.6751 18.9756 17.3172 19.8456L21.4701 23.1102C23.8568 20.8578 25.4091 17.5026 25.4091 13.2Z" fill="#4285F4"/>
</svg>
