<svg width="245" height="72" viewBox="0 0 245 72" fill="none" xmlns="http://www.w3.org/2000/svg">
<path d="M16.814 51V16.68H34.334V18.696H19.118V31.32H33.038V33.288H19.118V51H16.814ZM42.7693 51V19.848H44.9773V48.984H59.2813V51H42.7693ZM65.8318 51V19.848H80.3758V21.768H68.0398V33.096H79.1758V34.968H68.0398V48.984H80.8558V51H65.8318ZM85.8992 19.848H88.5872L96.8912 33.336L105.579 19.848H107.979L97.9952 35.112L108.027 51H105.387L96.4592 36.696L87.1472 51H84.6992L95.3552 34.872L85.8992 19.848ZM121.447 18.696H109.831V16.68H135.367V18.696H123.751V51H121.447V18.696ZM152.217 51.48C147.769 51.48 144.041 49.928 141.033 46.824C138.025 43.72 136.521 39.928 136.521 35.448C136.521 30.936 138.025 27.128 141.033 24.024C144.041 20.92 147.769 19.368 152.217 19.368C156.665 19.368 160.393 20.92 163.401 24.024C166.409 27.128 167.913 30.936 167.913 35.448C167.913 39.928 166.409 43.72 163.401 46.824C160.393 49.928 156.665 51.48 152.217 51.48ZM152.217 21.336C148.377 21.336 145.177 22.696 142.617 25.416C140.089 28.136 138.825 31.48 138.825 35.448C138.825 39.384 140.089 42.712 142.617 45.432C145.177 48.12 148.377 49.464 152.217 49.464C156.089 49.464 159.289 48.12 161.817 45.432C164.345 42.712 165.609 39.384 165.609 35.448C165.609 31.48 164.345 28.136 161.817 25.416C159.289 22.696 156.089 21.336 152.217 21.336ZM191.311 51.48C186.863 51.48 183.135 49.928 180.127 46.824C177.119 43.72 175.615 39.928 175.615 35.448C175.615 30.936 177.119 27.128 180.127 24.024C183.135 20.92 186.863 19.368 191.311 19.368C195.759 19.368 199.487 20.92 202.495 24.024C205.503 27.128 207.007 30.936 207.007 35.448C207.007 39.928 205.503 43.72 202.495 46.824C199.487 49.928 195.759 51.48 191.311 51.48ZM191.311 21.336C187.471 21.336 184.271 22.696 181.711 25.416C179.183 28.136 177.919 31.48 177.919 35.448C177.919 39.384 179.183 42.712 181.711 45.432C184.271 48.12 187.471 49.464 191.311 49.464C195.183 49.464 198.383 48.12 200.911 45.432C203.439 42.712 204.703 39.384 204.703 35.448C204.703 31.48 203.439 28.136 200.911 25.416C198.383 22.696 195.183 21.336 191.311 21.336ZM216.629 51V19.848H218.837V48.984H233.141V51H216.629Z" fill="#67597A"/>
</svg>
