<svg width="22" height="15" viewBox="0 0 22 15" fill="none" xmlns="http://www.w3.org/2000/svg">
<rect x="0.5" y="0.5" width="20.1176" height="14" rx="2.5" fill="white" stroke="#C8C4C4"/>
<path d="M11.7059 7.49996C11.7059 8.13347 11.1923 8.64702 10.5588 8.64702C9.9253 8.64702 9.41174 8.13347 9.41174 7.49996C9.41174 6.86646 9.9253 6.35291 10.5588 6.35291C11.1923 6.35291 11.7059 6.86646 11.7059 7.49996Z" fill="#6A6A6A"/>
<path d="M7.88237 7.49996C7.88237 8.13347 7.36882 8.64702 6.73532 8.64702C6.10181 8.64702 5.58826 8.13347 5.58826 7.49996C5.58826 6.86646 6.10181 6.35291 6.73532 6.35291C7.36882 6.35291 7.88237 6.86646 7.88237 7.49996Z" fill="#6A6A6A"/>
<circle cx="14.3824" cy="7.49996" r="1.14706" fill="#6A6A6A"/>
</svg>
